# xmcd CD database file
#
# Track frame offsets:
#	150
#	27312
#	50056
#	57765
#	72029
#
# Disc length: 1173 seconds
#
# Revision: 0
# Processed by: cddbd v1.5.1PL2 Copyright (c) Steve Scherf et al.
# Submitted via: CDex 1.51
#
DISCID=3f049305
DTITLE=Bjorkestra - Bjorkestra Live 2006
DYEAR=2006
DGENRE=Jazz
TTITLE0=Army of Me
TTITLE1=Cocoon
TTITLE2=Enjoy
TTITLE3=All is Full of Love
TTITLE4=It's Oh So Quiet
EXTD=YEAR: 2006
EXTT0=
EXTT1=
EXTT2=
EXTT3=
EXTT4=
PLAYORDER=
